0
SECTION
2
HEADER
9
$ACADVER
1
AC1015
9
$INSUNITS
70
4
0
ENDSEC
0
SECTION
2
TABLES
0
TABLE
2
LTYPE
70
1
0
LTYPE
2
CONTINUOUS
70
0
3
Solid line
72
65
73
0
40
0.0
0
ENDTAB
0
TABLE
2
LAYER
70
2
0
LAYER
2
0
70
0
62
7
6
CONTINUOUS
370
-1
0
LAYER
2
RED
70
0
62
1
6
CONTINUOUS
370
-1
0
ENDTAB
0
ENDSEC
0
SECTION
2
BLOCKS
0
ENDSEC
0
SECTION
2
ENTITIES
0
LINE
8
0
10
0.0
20
0.0
30
0.0
11
200.0
21
0.0
31
0.0
370
211
0
LINE
8
0
10
0.0
20
40.0
30
0.0
11
200.0
21
40.0
31
0.0
370
211
0
LINE
8
0
10
0.0
20
80.0
30
0.0
11
200.0
21
80.0
31
0.0
370
211
0
LINE
8
RED
62
1
10
0.0
20
120.0
30
0.0
11
200.0
21
120.0
31
0.0
370
211
0
ENDSEC
0
EOF
