<svg xmlns="http://www.w3.org/2000/svg" fill="none" width="20" height="20" viewBox="0 0 20 20">
<defs>
<clipPath id="svg_layer_current">
<rect x="0" y="0" width="20" height="20" rx="0"></rect>
</clipPath>
</defs>
<g clip-path="url(#svg_layer_current)">
<rect x="0" y="0" width="20" height="20" rx="0" fill-opacity="1"></rect>
<g>
<path d="M6.247785,7.386757055358887C6.128745,7.065530055358886,6.049815000000001,6.724930055358887,6.017105,6.371066055358887L2.171875,8.609257055358887L3.311865,9.249257055358887L10.091895000000001,13.059257055358888L17.001875,9.239257055358888L18.161875000000002,8.609257055358887L13.993375,6.230932687358886C13.972675,6.592580055358887,13.903775,6.941456055358887,13.792975,7.271227055358887L16.091875,8.589257055358887L10.091895000000001,11.909257055358886L4.181865,8.589257055358887L6.247785,7.386757055358887Z" fill-rule="evenodd" fill-opacity="1" ></path>
</g>
<g>
<path d="M10.25190000679016,16.459218749999998L18.17188000679016,11.84921875L17.00188000679016,11.19921875L10.221900006790161,15.19921875L3.321870006790161,11.20921895L2.171880006790161,11.84921875L10.25190000679016,16.459218749999998Z" fill-opacity="1"></path>
</g>
<g>
<path d="M10,9C8.34483,9,7,7.65517,7,6C7,4.34483,8.34483,3,10,3C11.65517,3,13,4.34483,13,6C13,7.65517,11.65517,9,10,9ZM10,3.827586C8.8,3.827586,7.827586,4.8,7.827586,6C7.827586,7.2,8.8,8.17241,10,8.17241C11.2,8.17241,12.17241,7.2,12.17241,6C12.17241,4.8,11.2,3.827586,10,3.827586Z" fill-opacity="1">
</path>
</g>
</g>
</svg>