<svg xmlns="http://www.w3.org/2000/svg" width="20" height="20" viewBox="0 0 20 20">
<path d="M8.440000000000001,4.0800000762939455L13,6.650000076293946L8.440000000000001,9.140000076293944L4,6.650000076293946L8.440000000000001,4.0800000762939455ZM8.440000000000001,2.9200000762939453L2,6.670000076293945L2.93,7.190000076293945L8.440000000000001,10.280000076293945L14.06,7.180000076293945L15,6.670000076293945L8.43,2.9200000762939453L8.440000000000001,2.9200000762939453Z"></path>
<ellipse cx="14.170000076293945" cy="13" rx="2" ry="2"></ellipse>
<ellipse cx="14.170000076293945" cy="9.5" rx="0.5" ry="0.5"></ellipse>
<ellipse cx="14.170000076293945" cy="16.5" rx="0.5" ry="0.5"></ellipse>
<ellipse cx="11.6899995803833" cy="10.529999732971191" rx="0.5" ry="0.5"></ellipse>
<ellipse cx="16.639999389648438" cy="15.470000267028809" rx="0.5" ry="0.5"></ellipse>
<ellipse cx="10.670000076293945" cy="13.029999732971191" rx="0.5" ry="0.5"></ellipse>
<ellipse cx="17.670000076293945" cy="12.970000267028809" rx="0.5" ry="0.5"></ellipse>
<ellipse cx="11.710000038146973" cy="15.489999771118164" rx="0.5" ry="0.5"></ellipse>
<ellipse cx="16.6200008392334" cy="10.510000228881836" rx="0.5" ry="0.5"></ellipse>
</svg>