<svg xmlns="http://www.w3.org/2000/svg" viewBox="0 0 20 20">
<path d="M8.440000000000001,4.0800000762939455L13,6.650000076293946L8.440000000000001,9.140000076293944L4,6.650000076293946L8.440000000000001,4.0800000762939455ZM8.440000000000001,2.9200000762939453L2,6.670000076293945L2.93,7.190000076293945L8.440000000000001,10.280000076293945L14.06,7.180000076293945L15,6.670000076293945L8.43,2.9200000762939453L8.440000000000001,2.9200000762939453Z"></path>
<path d="M18,12.70999969482422L16.38,12.70999969482422L17.759999999999998,11.329999694824219L17.240000000000002,10.819999694824219L15.35,12.70999969482422L14.36,12.70999969482422L14.36,11.729999694824219L16.259999999999998,9.829999694824219L15.74,9.319999694824219L14.36,10.699999694824218L14.36,9.069999694824219L13.64,9.069999694824219L13.64,10.699999694824218L12.26,9.319999694824219L11.74,9.829999694824219L13.64,11.729999694824219L13.64,12.70999969482422L12.65,12.70999969482422L10.76,10.819999694824219L10.24,11.329999694824219L11.620000000000001,12.70999969482422L10,12.70999969482422L10,13.43999969482422L11.620000000000001,13.43999969482422L10.24,14.819999694824219L10.76,15.329999694824219L12.65,13.43999969482422L13.64,13.43999969482422L13.64,14.429999694824218L11.74,16.31999969482422L12.26,16.829999694824217L13.64,15.449999694824218L13.64,17.06999969482422L14.36,17.06999969482422L14.36,15.449999694824218L15.74,16.829999694824217L16.259999999999998,16.31999969482422L14.36,14.429999694824218L14.36,13.43999969482422L15.35,13.43999969482422L17.240000000000002,15.329999694824219L17.759999999999998,14.819999694824219L16.38,13.43999969482422L18,13.43999969482422L18,12.70999969482422Z"></path>
</svg>