<svg xmlns="http://www.w3.org/2000/svg" viewBox="0 0 20 20">
<path d="M8.600000076293945,4.15L13.120000076293945,6.73L8.610000076293947,9.219999999999999L4.180000076293945,6.73L8.600000076293945,4.15ZM8.600000076293945,3L2.1700000762939453,6.74L3.0900000762939452,7.27L8.610000076293947,10.36L14.230000076293946,7.26L15.170000076293945,6.74L8.600000076293945,3Z"></path>
<path d="M14.670000076293945,10C12.737000076293945,10,11.170000076293945,11.567,11.170000076293945,13.5C11.170000076293945,15.433,12.737000076293945,17,14.670000076293945,17C16.603000076293945,17,18.170000076293945,15.433,18.170000076293945,13.5C18.170000076293945,11.567,16.603000076293945,10,14.670000076293945,10ZM12.170000076293945,13.5C12.168988076293946,13.009830000000001,12.311520076293945,12.530100000000001,12.580000076293945,12.120000000000001L16.000000076293944,15.58C15.596480076293945,15.85566,15.118690076293944,16.00214,14.630000076293946,16C13.265110076293945,15.97834,12.170000076293945,14.86542,12.170000076293945,13.5ZM16.750000076293944,14.879999999999999L13.290000076293946,11.42C13.696610076293945,11.14297,14.178000076293944,10.99646,14.670000076293945,11C15.592730076293945,10.994771,16.442690076293946,11.50025,16.878660076293947,12.3135C17.314630076293945,13.12675,17.265120076293947,14.114419999999999,16.750000076293944,14.879999999999999Z"></path>
</svg>