<svg xmlns="http://www.w3.org/2000/svg" viewBox="0 0 20 20">
  <!-- Layer stack (from layerOn), shifted slightly left -->
  <g transform="translate(-1.2,0)" fill="currentColor">
    <path d="M10.09,3.53L16.09,6.97L10.09,10.29L4.18,7L10.09,3.56M10.09,2.4L2.17,7L3.31,7.65L10.09,11.45L17,7.62L18.17,7L10.08,2.37L10.09,2.4Z"/>
    <path d="M10.25,14.83L18.17,10.22L17,9.57L10.22,13.57L3.32,9.59L2.17,10.22L10.25,14.83Z"/>
    <path d="M10.25,17.63L18.17,13L17,12.37L10.22,16.37L3.32,12.38L2.17,13L10.25,17.63Z"/>
  </g>
  <!-- Red delete / X badge (top-right), 1.5x -->
  <g transform="translate(16,5) scale(1.5) translate(-16,-5)">
    <path
      fill="#E74C3C"
      d="M13.4,3.1L14.1,2.4L16,4.3L17.9,2.4L18.6,3.1L16.7,5L18.6,6.9L17.9,7.6L16,5.7L14.1,7.6L13.4,6.9L15.3,5Z"
    />
  </g>
</svg>
