<?xml version="1.0" standalone="no"?><!DOCTYPE svg PUBLIC "-//W3C//DTD SVG 1.1//EN" "http://www.w3.org/Graphics/SVG/1.1/DTD/svg11.dtd"><svg t="1771930087969" class="icon" viewBox="0 0 1024 1024" version="1.1" xmlns="http://www.w3.org/2000/svg" p-id="18482" xmlns:xlink="http://www.w3.org/1999/xlink" width="200" height="200"><path d="M822.144 216.192h-614.4c-7.04 0-12.8-5.76-12.8-12.8v-19.2c0-7.04 5.76-12.8 12.8-12.8h614.4c7.04 0 12.8 5.76 12.8 12.8v19.2c0 7.04-5.76 12.8-12.8 12.8zM207.744 851.84h614.4c7.04 0 12.8-5.76 12.8-12.8v-19.2c0-7.04-5.76-12.8-12.8-12.8h-614.4c-7.04 0-12.8 5.76-12.8 12.8v19.2c0 7.168 5.76 12.8 12.8 12.8zM186.368 211.072v614.4c0 7.04-5.76 12.8-12.8 12.8h-19.2c-7.04 0-12.8-5.76-12.8-12.8v-614.4c0-7.04 5.76-12.8 12.8-12.8h19.2c7.168 0 12.8 5.76 12.8 12.8zM836.608 211.072v614.4c0 7.04 5.76 12.8 12.8 12.8h19.2c7.04 0 12.8-5.76 12.8-12.8v-614.4c0-7.04-5.76-12.8-12.8-12.8h-19.2c-7.04 0-12.8 5.76-12.8 12.8z" fill="#ffffff" p-id="18483"></path><path d="M208.768 251.392h-89.6c-7.04 0-12.8-5.76-12.8-12.8v-89.6c0-7.04 5.76-12.8 12.8-12.8h89.6c7.04 0 12.8 5.76 12.8 12.8v89.6c0 7.04-5.632 12.8-12.8 12.8zM903.808 251.392h-89.6c-7.04 0-12.8-5.76-12.8-12.8v-89.6c0-7.04 5.76-12.8 12.8-12.8h89.6c7.04 0 12.8 5.76 12.8 12.8v89.6c0 7.04-5.632 12.8-12.8 12.8zM814.208 887.04h89.6c7.04 0 12.8-5.76 12.8-12.8v-89.6c0-7.04-5.76-12.8-12.8-12.8h-89.6c-7.04 0-12.8 5.76-12.8 12.8v89.6c0 7.168 5.76 12.8 12.8 12.8zM119.168 887.04h89.6c7.04 0 12.8-5.76 12.8-12.8v-89.6c0-7.04-5.76-12.8-12.8-12.8h-89.6c-7.04 0-12.8 5.76-12.8 12.8v89.6c0 7.168 5.76 12.8 12.8 12.8z" fill="#ffffff" p-id="18484"></path><path d="M286.336 193.28L172.8 315.008v65.664L347.52 193.28zM481.664 193.28L172.8 524.416v65.792L542.848 193.28zM738.176 193.28h-61.184L172.8 733.952v63.616l1.024 1.024zM843.52 224.128L287.36 820.48h61.312L843.52 289.792zM843.52 433.536L482.688 820.48H544l299.52-321.152zM843.52 643.072L678.016 820.48h61.312l104.192-111.744z" fill="#ffffff" p-id="18485"></path></svg>