<?xml version="1.0" standalone="no"?><!DOCTYPE svg PUBLIC "-//W3C//DTD SVG 1.1//EN" "http://www.w3.org/Graphics/SVG/1.1/DTD/svg11.dtd"><svg t="1771929960014" class="icon" viewBox="0 0 1024 1024" version="1.1" xmlns="http://www.w3.org/2000/svg" p-id="17057" xmlns:xlink="http://www.w3.org/1999/xlink" width="200" height="200"><path d="M93.781333 583.253333c-10.24-10.24-27.648-9.386667-38.912 1.834667-11.221333 11.221333-12.032 28.629333-1.792 38.912l89.472 89.429333c10.24 10.24 27.648 9.386667 38.869334-1.792 11.221333-11.264 12.032-28.672 1.792-38.912l-30.933334-30.933333L626.901333 167.168l30.933334 30.933333c10.24 10.24 27.648 9.472 38.869333-1.792 11.264-11.221333 12.032-28.629333 1.792-38.869333l-89.429333-89.429333c-10.24-10.24-27.648-9.472-38.869334 1.792-11.264 11.221333-12.032 28.629333-1.792 38.869333l21.376 21.418667L115.2 604.714667l-21.418667-21.418667z m622.08-344.32L224 730.794667c-21.418667 21.461333-20.608 57.045333 1.877333 79.530666l160.128 160.128c22.485333 22.485333 58.112 23.338667 79.530667 1.877334l491.946667-491.946667c21.461333-21.418667 20.608-57.045333-1.877334-79.530667l-160.128-160.128c-22.485333-22.485333-58.069333-23.296-79.530666-1.877333zM262.144 774.101333q-2.730667-2.730667-0.128-5.333333L753.92 276.906667q2.56-2.56 5.290667 0.170666l160.128 160.085334q2.688 2.730667 0.128 5.333333l-72.533334 72.490667-59.690666-59.733334c-11.989333-11.946667-30.976-12.416-42.410667-0.981333-11.434667 11.434667-11.008 30.421333 0.981333 42.410667l59.733334 59.733333-67.328 67.328-59.733334-59.733333c-11.946667-11.946667-30.976-12.416-42.410666-0.981334-11.434667 11.434667-11.008 30.421333 0.981333 42.410667l59.733333 59.733333-67.328 67.285334-100.394666-100.394667c-11.989333-11.989333-31.018667-12.458667-42.453334-1.024-11.434667 11.434667-10.965333 30.464 1.024 42.453333l100.394667 100.394667-69.888 69.888-59.733333-59.690667c-11.946667-11.946667-30.976-12.416-42.410667-0.981333-11.434667 11.434667-11.008 30.421333 1.024 42.410667l59.690667 59.733333-49.194667 49.152q-1.066667 1.109333-2.645333 1.066667-1.536-0.042667-2.645334-1.194667l-160.128-160.085333z" fill="#ffffff" p-id="17058"></path></svg>